<?xml version="1.0" encoding="UTF-8"?>
<svg id="_圖層_1" xmlns="http://www.w3.org/2000/svg" version="1.1" viewBox="0 0 1500 1500">
  <!-- Generator: Adobe Illustrator 29.7.1, SVG Export Plug-In . SVG Version: 2.1.1 Build 8)  -->
  <defs>
    <style>
      .st0 {
        stroke-width: 5px;
      }

      .st0, .st1 {
        fill: none;
        stroke: #fff;
        stroke-miterlimit: 10;
      }

      .st2 {
        isolation: isolate;
      }

      .st3 {
        fill: #fff;
      }
    </style>
  </defs>
  <g>
    <line class="st1" x1="731.83" y1="243.92" x2="734.27" y2="313.88"/>
    <line class="st1" x1="764.37" y1="1175.75" x2="766.81" y2="1245.71"/>
    <line class="st1" x1="714.36" y1="244.84" x2="719.24" y2="314.67"/>
    <line class="st1" x1="779.4" y1="1174.96" x2="784.28" y2="1244.79"/>
    <line class="st1" x1="696.93" y1="246.36" x2="704.25" y2="315.98"/>
    <line class="st1" x1="794.39" y1="1173.65" x2="801.71" y2="1243.27"/>
    <line class="st1" x1="679.56" y1="248.5" x2="689.31" y2="317.81"/>
    <line class="st1" x1="809.33" y1="1171.82" x2="819.07" y2="1241.14"/>
    <line class="st1" x1="662.29" y1="251.23" x2="674.44" y2="320.17"/>
    <line class="st1" x1="824.19" y1="1169.46" x2="836.35" y2="1238.4"/>
    <line class="st1" x1="645.11" y1="254.57" x2="659.67" y2="323.04"/>
    <line class="st1" x1="838.97" y1="1166.59" x2="853.52" y2="1235.06"/>
    <line class="st1" x1="628.07" y1="258.51" x2="645" y2="326.43"/>
    <line class="st1" x1="853.63" y1="1163.21" x2="870.57" y2="1231.13"/>
    <line class="st1" x1="611.17" y1="263.03" x2="630.46" y2="330.32"/>
    <line class="st1" x1="868.17" y1="1159.31" x2="887.47" y2="1226.6"/>
    <line class="st1" x1="594.44" y1="268.15" x2="616.07" y2="334.72"/>
    <line class="st1" x1="882.56" y1="1154.91" x2="904.2" y2="1221.48"/>
    <line class="st1" x1="577.9" y1="273.84" x2="601.84" y2="339.62"/>
    <line class="st1" x1="896.8" y1="1150.01" x2="920.74" y2="1215.79"/>
    <line class="st1" x1="561.57" y1="280.11" x2="587.79" y2="345.02"/>
    <line class="st1" x1="910.85" y1="1144.62" x2="937.07" y2="1209.52"/>
    <line class="st1" x1="545.46" y1="286.95" x2="573.93" y2="350.9"/>
    <line class="st1" x1="924.7" y1="1138.73" x2="953.17" y2="1202.68"/>
    <line class="st1" x1="529.61" y1="294.34" x2="560.29" y2="357.26"/>
    <line class="st1" x1="938.34" y1="1132.37" x2="969.03" y2="1195.29"/>
    <line class="st1" x1="514.02" y1="302.28" x2="546.88" y2="364.09"/>
    <line class="st1" x1="951.75" y1="1125.54" x2="984.62" y2="1187.35"/>
    <line class="st1" x1="483.72" y1="319.78" x2="520.82" y2="379.14"/>
    <line class="st1" x1="977.82" y1="1110.49" x2="1014.91" y2="1169.86"/>
    <line class="st1" x1="469.05" y1="329.3" x2="508.19" y2="387.34"/>
    <line class="st1" x1="990.44" y1="1102.3" x2="1029.58" y2="1160.33"/>
    <line class="st1" x1="454.72" y1="339.34" x2="495.87" y2="395.97"/>
    <line class="st1" x1="1002.77" y1="1093.66" x2="1043.91" y2="1150.29"/>
    <line class="st1" x1="440.75" y1="349.87" x2="483.85" y2="405.03"/>
    <line class="st1" x1="1014.79" y1="1084.6" x2="1057.89" y2="1139.77"/>
    <line class="st1" x1="427.15" y1="360.88" x2="472.15" y2="414.5"/>
    <line class="st1" x1="1026.49" y1="1075.13" x2="1071.48" y2="1128.76"/>
    <line class="st1" x1="413.95" y1="372.35" x2="460.79" y2="424.37"/>
    <line class="st1" x1="1037.85" y1="1065.26" x2="1084.68" y2="1117.28"/>
    <line class="st1" x1="401.16" y1="384.28" x2="449.78" y2="434.64"/>
    <line class="st1" x1="1048.85" y1="1054.99" x2="1097.48" y2="1105.35"/>
    <line class="st1" x1="388.79" y1="396.65" x2="439.14" y2="445.28"/>
    <line class="st1" x1="1059.5" y1="1044.35" x2="1109.85" y2="1092.98"/>
    <line class="st1" x1="376.85" y1="409.45" x2="428.88" y2="456.29"/>
    <line class="st1" x1="1069.76" y1="1033.34" x2="1121.78" y2="1080.18"/>
    <line class="st1" x1="365.38" y1="422.65" x2="419" y2="467.65"/>
    <line class="st1" x1="1079.63" y1="1021.98" x2="1133.26" y2="1066.98"/>
    <line class="st1" x1="354.37" y1="436.25" x2="409.53" y2="479.34"/>
    <line class="st1" x1="1089.11" y1="1010.29" x2="1144.27" y2="1053.38"/>
    <line class="st1" x1="343.84" y1="450.22" x2="400.47" y2="491.36"/>
    <line class="st1" x1="1098.16" y1="998.27" x2="1154.79" y2="1039.41"/>
    <line class="st1" x1="333.81" y1="464.55" x2="391.84" y2="503.69"/>
    <line class="st1" x1="1106.8" y1="985.94" x2="1164.83" y2="1025.08"/>
    <line class="st1" x1="324.28" y1="479.22" x2="383.64" y2="516.32"/>
    <line class="st1" x1="1114.99" y1="973.32" x2="1174.36" y2="1010.41"/>
    <line class="st1" x1="306.79" y1="509.52" x2="368.59" y2="542.38"/>
    <line class="st1" x1="1130.04" y1="947.25" x2="1191.85" y2="980.11"/>
    <line class="st1" x1="298.84" y1="525.11" x2="361.76" y2="555.79"/>
    <line class="st1" x1="1136.88" y1="933.84" x2="1199.79" y2="964.53"/>
    <line class="st1" x1="291.45" y1="540.96" x2="355.4" y2="569.43"/>
    <line class="st1" x1="1143.24" y1="920.2" x2="1207.18" y2="948.67"/>
    <line class="st1" x1="284.61" y1="557.06" x2="349.52" y2="583.29"/>
    <line class="st1" x1="1149.12" y1="906.35" x2="1214.02" y2="932.57"/>
    <line class="st1" x1="278.35" y1="573.4" x2="344.12" y2="597.34"/>
    <line class="st1" x1="1154.51" y1="892.29" x2="1220.29" y2="916.24"/>
    <line class="st1" x1="272.65" y1="589.94" x2="339.22" y2="611.57"/>
    <line class="st1" x1="1159.41" y1="878.06" x2="1225.98" y2="899.69"/>
    <line class="st1" x1="267.54" y1="606.67" x2="334.82" y2="625.96"/>
    <line class="st1" x1="1163.81" y1="863.67" x2="1231.1" y2="882.96"/>
    <line class="st1" x1="263.01" y1="623.57" x2="330.93" y2="640.5"/>
    <line class="st1" x1="1167.71" y1="849.13" x2="1235.63" y2="866.07"/>
    <line class="st1" x1="259.07" y1="640.61" x2="327.54" y2="655.16"/>
    <line class="st1" x1="1171.09" y1="834.47" x2="1239.56" y2="849.02"/>
    <line class="st1" x1="255.73" y1="657.78" x2="324.67" y2="669.94"/>
    <line class="st1" x1="1173.96" y1="819.69" x2="1242.9" y2="831.85"/>
    <line class="st1" x1="253" y1="675.06" x2="322.32" y2="684.8"/>
    <line class="st1" x1="1176.32" y1="804.83" x2="1245.64" y2="814.57"/>
    <line class="st1" x1="250.87" y1="692.43" x2="320.48" y2="699.74"/>
    <line class="st1" x1="1178.15" y1="789.89" x2="1247.77" y2="797.21"/>
    <line class="st1" x1="249.34" y1="709.85" x2="319.17" y2="714.74"/>
    <line class="st1" x1="1179.46" y1="774.89" x2="1249.29" y2="779.78"/>
    <line class="st1" x1="248.43" y1="727.32" x2="318.38" y2="729.77"/>
    <line class="st1" x1="1180.25" y1="759.86" x2="1250.21" y2="762.31"/>
    <line class="st1" x1="248.43" y1="762.31" x2="318.38" y2="759.86"/>
    <line class="st1" x1="1180.25" y1="729.77" x2="1250.21" y2="727.32"/>
    <line class="st1" x1="249.34" y1="779.78" x2="319.17" y2="774.89"/>
    <line class="st1" x1="1179.46" y1="714.74" x2="1249.29" y2="709.85"/>
    <line class="st1" x1="250.87" y1="797.21" x2="320.48" y2="789.89"/>
    <line class="st1" x1="1178.15" y1="699.74" x2="1247.77" y2="692.43"/>
    <line class="st1" x1="253" y1="814.57" x2="322.32" y2="804.83"/>
    <line class="st1" x1="1176.32" y1="684.8" x2="1245.64" y2="675.06"/>
    <line class="st1" x1="255.73" y1="831.85" x2="324.67" y2="819.69"/>
    <line class="st1" x1="1173.96" y1="669.94" x2="1242.9" y2="657.78"/>
    <line class="st1" x1="259.07" y1="849.02" x2="327.54" y2="834.47"/>
    <line class="st1" x1="1171.09" y1="655.16" x2="1239.56" y2="640.61"/>
    <line class="st1" x1="263.01" y1="866.07" x2="330.93" y2="849.13"/>
    <line class="st1" x1="1167.71" y1="640.5" x2="1235.63" y2="623.57"/>
    <line class="st1" x1="267.54" y1="882.96" x2="334.82" y2="863.67"/>
    <line class="st1" x1="1163.81" y1="625.96" x2="1231.1" y2="606.67"/>
    <line class="st1" x1="272.65" y1="899.69" x2="339.22" y2="878.06"/>
    <line class="st1" x1="1159.41" y1="611.57" x2="1225.98" y2="589.94"/>
    <line class="st1" x1="278.35" y1="916.24" x2="344.12" y2="892.29"/>
    <line class="st1" x1="1154.51" y1="597.34" x2="1220.29" y2="573.4"/>
    <line class="st1" x1="284.61" y1="932.57" x2="349.52" y2="906.35"/>
    <line class="st1" x1="1149.12" y1="583.29" x2="1214.02" y2="557.06"/>
    <line class="st1" x1="291.45" y1="948.67" x2="355.4" y2="920.2"/>
    <line class="st1" x1="1143.24" y1="569.43" x2="1207.18" y2="540.96"/>
    <line class="st1" x1="298.84" y1="964.53" x2="361.76" y2="933.84"/>
    <line class="st1" x1="1136.88" y1="555.79" x2="1199.79" y2="525.11"/>
    <line class="st1" x1="306.79" y1="980.11" x2="368.59" y2="947.25"/>
    <line class="st1" x1="1130.04" y1="542.38" x2="1191.85" y2="509.52"/>
    <line class="st1" x1="324.28" y1="1010.41" x2="383.64" y2="973.32"/>
    <line class="st1" x1="1114.99" y1="516.32" x2="1174.36" y2="479.22"/>
    <line class="st1" x1="333.81" y1="1025.08" x2="391.84" y2="985.94"/>
    <line class="st1" x1="1106.8" y1="503.69" x2="1164.83" y2="464.55"/>
    <line class="st1" x1="343.84" y1="1039.41" x2="400.47" y2="998.27"/>
    <line class="st1" x1="1098.16" y1="491.36" x2="1154.79" y2="450.22"/>
    <line class="st1" x1="354.37" y1="1053.38" x2="409.53" y2="1010.29"/>
    <line class="st1" x1="1089.11" y1="479.34" x2="1144.27" y2="436.25"/>
    <line class="st1" x1="365.38" y1="1066.98" x2="419" y2="1021.98"/>
    <line class="st1" x1="1079.63" y1="467.65" x2="1133.26" y2="422.65"/>
    <line class="st1" x1="376.85" y1="1080.18" x2="428.88" y2="1033.34"/>
    <line class="st1" x1="1069.76" y1="456.29" x2="1121.78" y2="409.45"/>
    <line class="st1" x1="388.79" y1="1092.98" x2="439.14" y2="1044.35"/>
    <line class="st1" x1="1059.5" y1="445.28" x2="1109.85" y2="396.65"/>
    <line class="st1" x1="401.16" y1="1105.35" x2="449.78" y2="1054.99"/>
    <line class="st1" x1="1048.85" y1="434.64" x2="1097.48" y2="384.28"/>
    <line class="st1" x1="413.95" y1="1117.28" x2="460.79" y2="1065.26"/>
    <line class="st1" x1="1037.85" y1="424.37" x2="1084.68" y2="372.35"/>
    <line class="st1" x1="427.15" y1="1128.76" x2="472.15" y2="1075.13"/>
    <line class="st1" x1="1026.49" y1="414.5" x2="1071.48" y2="360.88"/>
    <line class="st1" x1="440.75" y1="1139.77" x2="483.85" y2="1084.6"/>
    <line class="st1" x1="1014.79" y1="405.03" x2="1057.89" y2="349.87"/>
    <line class="st1" x1="454.72" y1="1150.29" x2="495.87" y2="1093.66"/>
    <line class="st1" x1="1002.77" y1="395.97" x2="1043.91" y2="339.34"/>
    <line class="st1" x1="469.05" y1="1160.33" x2="508.19" y2="1102.3"/>
    <line class="st1" x1="990.44" y1="387.34" x2="1029.58" y2="329.3"/>
    <line class="st1" x1="483.72" y1="1169.86" x2="520.82" y2="1110.49"/>
    <line class="st1" x1="977.82" y1="379.14" x2="1014.91" y2="319.78"/>
    <line class="st1" x1="514.02" y1="1187.35" x2="546.88" y2="1125.54"/>
    <line class="st1" x1="951.75" y1="364.09" x2="984.62" y2="302.28"/>
    <line class="st1" x1="529.61" y1="1195.29" x2="560.29" y2="1132.37"/>
    <line class="st1" x1="938.34" y1="357.26" x2="969.03" y2="294.34"/>
    <line class="st1" x1="545.46" y1="1202.68" x2="573.93" y2="1138.73"/>
    <line class="st1" x1="924.7" y1="350.9" x2="953.17" y2="286.95"/>
    <line class="st1" x1="561.57" y1="1209.52" x2="587.79" y2="1144.62"/>
    <line class="st1" x1="910.85" y1="345.02" x2="937.07" y2="280.11"/>
    <line class="st1" x1="577.9" y1="1215.79" x2="601.84" y2="1150.01"/>
    <line class="st1" x1="896.8" y1="339.62" x2="920.74" y2="273.84"/>
    <line class="st1" x1="594.44" y1="1221.48" x2="616.07" y2="1154.91"/>
    <line class="st1" x1="882.56" y1="334.72" x2="904.2" y2="268.15"/>
    <line class="st1" x1="611.17" y1="1226.6" x2="630.46" y2="1159.31"/>
    <line class="st1" x1="868.17" y1="330.32" x2="887.47" y2="263.03"/>
    <line class="st1" x1="628.07" y1="1231.13" x2="645" y2="1163.21"/>
    <line class="st1" x1="853.63" y1="326.43" x2="870.57" y2="258.51"/>
    <line class="st1" x1="645.11" y1="1235.06" x2="659.67" y2="1166.59"/>
    <line class="st1" x1="838.97" y1="323.04" x2="853.52" y2="254.57"/>
    <line class="st1" x1="662.29" y1="1238.4" x2="674.44" y2="1169.46"/>
    <line class="st1" x1="824.19" y1="320.17" x2="836.35" y2="251.23"/>
    <line class="st1" x1="679.56" y1="1241.14" x2="689.31" y2="1171.82"/>
    <line class="st1" x1="809.33" y1="317.81" x2="819.07" y2="248.5"/>
    <line class="st1" x1="696.93" y1="1243.27" x2="704.25" y2="1173.65"/>
    <line class="st1" x1="794.39" y1="315.98" x2="801.71" y2="246.36"/>
    <line class="st1" x1="714.36" y1="1244.79" x2="719.24" y2="1174.96"/>
    <line class="st1" x1="779.4" y1="314.67" x2="784.28" y2="244.84"/>
    <line class="st1" x1="731.83" y1="1245.71" x2="734.27" y2="1175.75"/>
    <line class="st1" x1="764.37" y1="313.88" x2="766.81" y2="243.92"/>
  </g>
  <g>
    <line class="st0" x1="749.32" y1="243.31" x2="749.32" y2="313.31"/>
    <line class="st0" x1="749.32" y1="1175.71" x2="749.32" y2="1245.71"/>
    <line class="st0" x1="498.72" y1="310.46" x2="533.72" y2="371.08"/>
    <line class="st0" x1="964.92" y1="1117.94" x2="999.92" y2="1178.56"/>
    <line class="st0" x1="1122.75" y1="960.11" x2="1183.37" y2="995.11"/>
    <line class="st0" x1="1180.52" y1="744.51" x2="1250.52" y2="744.51"/>
    <line class="st0" x1="1122.75" y1="528.91" x2="1183.37" y2="493.91"/>
    <line class="st0" x1="498.72" y1="1178.56" x2="533.72" y2="1117.94"/>
    <line class="st0" x1="964.92" y1="371.08" x2="999.92" y2="310.46"/>
    <line class="st0" x1="315.27" y1="995.11" x2="375.89" y2="960.11"/>
    <line class="st0" x1="248.12" y1="744.51" x2="318.12" y2="744.51"/>
    <line class="st0" x1="315.27" y1="493.91" x2="375.89" y2="528.91"/>
  </g>
  <g>
    <g class="st2">
      <g class="st2">
        <path class="st3" d="M187.33,773.03c0-.75.22-1.33.65-1.75s1-.63,1.7-.63h4.13v33.74h-2.34c-.47,0-.96-.09-1.49-.28s-1-.5-1.42-.94l-15.92-15.89c-1.33-1.33-2.61-2.53-3.85-3.61-1.24-1.07-2.47-1.98-3.69-2.73s-2.48-1.32-3.76-1.73-2.64-.61-4.06-.61-2.63.22-3.69.66-1.94,1.05-2.64,1.82-1.22,1.68-1.58,2.73c-.35,1.05-.52,2.18-.52,3.39s.17,2.33.52,3.34c.35,1.02.84,1.92,1.47,2.71.63.79,1.38,1.46,2.24,2s1.8.92,2.8,1.16c.89.33,1.48.74,1.79,1.24.3.5.37,1.23.21,2.19l-.63,3.57c-2.33-.33-4.39-.97-6.16-1.93s-3.26-2.16-4.46-3.6c-1.2-1.45-2.11-3.11-2.71-4.99-.61-1.88-.91-3.9-.91-6.07s.32-4.22.96-6.07c.64-1.86,1.57-3.46,2.78-4.81,1.21-1.35,2.69-2.42,4.43-3.19s3.7-1.15,5.9-1.15c1.87,0,3.6.27,5.2.82,1.6.55,3.12,1.29,4.57,2.24,1.45.94,2.85,2.04,4.22,3.29s2.75,2.57,4.15,3.97l13.02,12.74c-.26-.98-.47-1.97-.63-2.96-.16-.99-.24-1.93-.24-2.82v-15.85h-.04Z"/>
        <path class="st3" d="M143.54,729h3.04c.89,0,1.6.1,2.15.3.55.2,1.02.39,1.42.58l41.23,20.37c.68.33,1.25.78,1.71,1.37.47.58.7,1.37.7,2.34v4.9l-40.63-20.68c-.65-.35-1.25-.7-1.8-1.05s-1.06-.74-1.52-1.16v25.69c0,.44-.16.83-.49,1.15-.33.33-.71.49-1.16.49h-4.65v-34.3h0Z"/>
        <path class="st3" d="M168.67,687.77c4.39,0,8.19.47,11.41,1.42,3.22.94,5.89,2.24,8,3.88,2.11,1.65,3.68,3.58,4.71,5.81,1.03,2.23,1.54,4.63,1.54,7.19s-.51,4.96-1.54,7.19-2.6,4.16-4.71,5.79-4.78,2.92-8,3.85-7.02,1.4-11.41,1.4-8.2-.47-11.43-1.4c-3.23-.93-5.9-2.22-8.01-3.85s-3.68-3.56-4.71-5.79c-1.03-2.23-1.54-4.63-1.54-7.19s.51-4.96,1.54-7.19,2.6-4.17,4.71-5.81,4.78-2.94,8.01-3.88c3.23-.95,7.04-1.42,11.43-1.42h0ZM168.67,694.84c-3.78,0-6.94.31-9.49.93-2.54.62-4.59,1.45-6.14,2.48-1.55,1.04-2.65,2.23-3.31,3.59-.65,1.35-.98,2.77-.98,4.23s.33,2.88.98,4.24c.65,1.35,1.76,2.55,3.31,3.59,1.55,1.04,3.6,1.86,6.14,2.47s5.71.91,9.49.91,6.94-.3,9.49-.91c2.54-.61,4.58-1.43,6.12-2.47s2.64-2.23,3.29-3.59c.65-1.35.98-2.77.98-4.24s-.33-2.88-.98-4.23-1.75-2.55-3.29-3.59c-1.54-1.04-3.58-1.87-6.12-2.48s-5.71-.93-9.49-.93Z"/>
        <path class="st3" d="M154.35,682.8c-1.59,0-3.07-.3-4.46-.89s-2.6-1.41-3.62-2.45c-1.03-1.04-1.84-2.26-2.43-3.66-.59-1.4-.89-2.92-.89-4.55s.3-3.16.89-4.57c.6-1.41,1.41-2.64,2.43-3.69,1.03-1.05,2.23-1.87,3.62-2.47s2.88-.89,4.46-.89,3.04.3,4.43.89,2.6,1.42,3.64,2.47,1.86,2.28,2.47,3.69.91,2.93.91,4.57-.3,3.15-.91,4.55c-.61,1.4-1.43,2.62-2.47,3.66-1.04,1.04-2.25,1.85-3.64,2.45-1.39.6-2.86.89-4.43.89ZM154.39,677.97c.96,0,1.85-.17,2.68-.51.83-.34,1.55-.81,2.15-1.42.61-.61,1.08-1.32,1.44-2.14.35-.82.52-1.7.52-2.66s-.17-1.85-.52-2.68-.83-1.55-1.44-2.15c-.61-.61-1.32-1.08-2.15-1.42s-1.72-.51-2.68-.51-1.85.17-2.68.51c-.83.34-1.55.81-2.17,1.42s-1.1,1.32-1.45,2.15c-.35.83-.53,1.72-.53,2.68s.18,1.84.53,2.66c.35.82.83,1.53,1.45,2.14s1.34,1.08,2.17,1.42c.83.34,1.72.51,2.68.51Z"/>
      </g>
    </g>
    <g class="st2">
      <g class="st2">
        <path class="st3" d="M774.1,1299.1v-5.21h27.16v5.21h-10.64v32.94c0,1.05-.04,2.13-.1,3.25l8.54-7.25c.33-.26.65-.42.98-.49.33-.07.64-.08.93-.04s.55.15.77.3c.22.15.4.31.54.47l2.13,2.97-15.05,12.99h-5.57v-45.15h-9.7.01Z"/>
        <path class="st3" d="M741.45,1320.1c-3.13-.93-5.5-2.44-7.12-4.51-1.62-2.08-2.43-4.7-2.43-7.88,0-2.19.41-4.18,1.24-5.95.83-1.77,2-3.28,3.5-4.53,1.51-1.25,3.31-2.21,5.41-2.89s4.41-1.01,6.93-1.01,4.83.34,6.93,1.01c2.1.68,3.9,1.64,5.41,2.89,1.5,1.25,2.67,2.76,3.5,4.53s1.24,3.76,1.24,5.95c0,3.17-.81,5.8-2.43,7.88s-4,3.58-7.12,4.51c2.59.98,4.54,2.44,5.84,4.39,1.31,1.95,1.96,4.26,1.96,6.95,0,1.87-.37,3.61-1.1,5.23-.74,1.62-1.77,3.03-3.12,4.22-1.34,1.19-2.96,2.12-4.85,2.8-1.89.68-3.98,1.02-6.27,1.02s-4.38-.34-6.27-1.02-3.51-1.61-4.85-2.8c-1.34-1.19-2.38-2.6-3.11-4.22-.74-1.62-1.1-3.37-1.1-5.23,0-2.68.65-5,1.96-6.95s3.25-3.41,5.84-4.39h0ZM748.97,1298.75c-1.59,0-3,.22-4.24.67-1.24.44-2.29,1.07-3.15,1.87-.86.8-1.52,1.77-1.96,2.89s-.67,2.34-.67,3.67c0,1.63.27,3.04.81,4.22.54,1.18,1.26,2.15,2.17,2.91s1.97,1.32,3.19,1.68c1.21.36,2.5.54,3.85.54s2.67-.18,3.88-.54,2.28-.92,3.19-1.68,1.63-1.73,2.15-2.91c.53-1.18.79-2.58.79-4.22,0-1.33-.22-2.55-.66-3.67s-1.1-2.08-1.96-2.89c-.86-.8-1.91-1.43-3.15-1.87-1.24-.44-2.65-.67-4.23-.67h0ZM748.97,1339.45c1.45,0,2.71-.22,3.8-.65,1.08-.43,1.99-1.02,2.71-1.77.72-.75,1.27-1.61,1.63-2.59s.54-2.03.54-3.15-.16-2.17-.47-3.2c-.32-1.04-.82-1.96-1.5-2.77-.69-.8-1.58-1.45-2.68-1.94s-2.44-.74-4.02-.74-2.9.25-4.01.74-2.01,1.14-2.69,1.94c-.69.81-1.19,1.73-1.5,2.77s-.47,2.11-.47,3.2.18,2.17.54,3.15.9,1.84,1.63,2.59c.72.75,1.63,1.33,2.71,1.77,1.08.43,2.35.65,3.8.65h-.02Z"/>
        <path class="st3" d="M690.1,1319.01c0-4.39.47-8.19,1.42-11.41.94-3.22,2.24-5.89,3.88-8,1.65-2.11,3.58-3.68,5.81-4.71,2.23-1.03,4.63-1.54,7.19-1.54s4.96.51,7.19,1.54,4.16,2.6,5.79,4.71,2.92,4.78,3.85,8,1.4,7.02,1.4,11.41-.47,8.2-1.4,11.43c-.93,3.23-2.22,5.9-3.85,8.01s-3.56,3.68-5.79,4.71c-2.23,1.03-4.63,1.54-7.19,1.54s-4.96-.51-7.19-1.54-4.17-2.6-5.81-4.71-2.94-4.78-3.88-8.01c-.95-3.23-1.42-7.04-1.42-11.43ZM697.17,1319.01c0,3.78.31,6.94.93,9.49.62,2.54,1.45,4.59,2.48,6.14,1.04,1.55,2.23,2.65,3.59,3.31,1.35.65,2.77.98,4.23.98s2.88-.33,4.24-.98c1.35-.65,2.55-1.76,3.59-3.31,1.04-1.55,1.86-3.6,2.47-6.14s.91-5.71.91-9.49-.3-6.94-.91-9.49c-.61-2.54-1.43-4.58-2.47-6.12s-2.23-2.64-3.59-3.29c-1.35-.65-2.77-.98-4.24-.98s-2.88.33-4.23.98-2.55,1.75-3.59,3.29c-1.04,1.54-1.87,3.58-2.48,6.12s-.93,5.71-.93,9.49Z"/>
        <path class="st3" d="M685.13,1333.33c0,1.59-.3,3.07-.89,4.46s-1.41,2.6-2.45,3.62c-1.04,1.03-2.26,1.84-3.66,2.43-1.4.59-2.92.89-4.55.89s-3.16-.3-4.57-.89c-1.41-.6-2.64-1.41-3.69-2.43-1.05-1.03-1.87-2.23-2.47-3.62s-.89-2.88-.89-4.46.3-3.04.89-4.43,1.42-2.6,2.47-3.64,2.28-1.86,3.69-2.47,2.93-.91,4.57-.91,3.15.3,4.55.91c1.4.61,2.62,1.43,3.66,2.47,1.04,1.04,1.85,2.25,2.45,3.64.6,1.39.89,2.86.89,4.43ZM680.3,1333.29c0-.96-.17-1.85-.51-2.68-.34-.83-.81-1.55-1.42-2.15-.61-.61-1.32-1.08-2.14-1.44-.82-.35-1.7-.52-2.66-.52s-1.85.17-2.68.52-1.55.83-2.15,1.44c-.61.61-1.08,1.32-1.42,2.15s-.51,1.72-.51,2.68.17,1.85.51,2.68c.34.83.81,1.55,1.42,2.17s1.32,1.1,2.15,1.45,1.72.53,2.68.53,1.84-.18,2.66-.53c.82-.35,1.53-.83,2.14-1.45s1.08-1.34,1.42-2.17c.34-.83.51-1.72.51-2.68Z"/>
      </g>
    </g>
    <g class="st2">
      <g class="st2">
        <path class="st3" d="M768.26,166.34c0,4.39-.47,8.19-1.42,11.41s-2.24,5.89-3.88,8c-1.65,2.11-3.58,3.68-5.81,4.71s-4.63,1.54-7.19,1.54-4.96-.51-7.19-1.54-4.16-2.6-5.79-4.71-2.92-4.78-3.85-8-1.4-7.02-1.4-11.41.47-8.2,1.4-11.43c.93-3.23,2.22-5.9,3.85-8.01s3.56-3.68,5.79-4.71c2.23-1.03,4.63-1.54,7.19-1.54s4.96.51,7.19,1.54,4.17,2.6,5.81,4.71,2.94,4.78,3.88,8.01c.95,3.23,1.42,7.04,1.42,11.43ZM761.19,166.34c0-3.78-.31-6.94-.93-9.49-.62-2.54-1.45-4.59-2.49-6.14s-2.23-2.65-3.59-3.31c-1.35-.65-2.77-.98-4.24-.98s-2.88.33-4.24.98c-1.35.65-2.55,1.76-3.59,3.31-1.04,1.55-1.86,3.6-2.47,6.14s-.91,5.71-.91,9.49.3,6.94.91,9.49c.61,2.54,1.43,4.58,2.47,6.12s2.23,2.64,3.59,3.29c1.35.65,2.77.98,4.24.98s2.88-.33,4.24-.98c1.35-.65,2.55-1.75,3.59-3.29,1.04-1.54,1.87-3.58,2.49-6.12s.93-5.71.93-9.49Z"/>
        <path class="st3" d="M773.23,152.02c0-1.59.3-3.07.89-4.46s1.41-2.6,2.45-3.62c1.04-1.03,2.26-1.84,3.66-2.43,1.4-.59,2.92-.89,4.55-.89s3.16.3,4.57.89c1.41.6,2.64,1.41,3.69,2.43,1.05,1.03,1.87,2.23,2.47,3.62s.89,2.88.89,4.46-.3,3.04-.89,4.43-1.42,2.6-2.47,3.64-2.28,1.86-3.69,2.47-2.93.91-4.57.91-3.15-.3-4.55-.91c-1.4-.61-2.62-1.43-3.66-2.47-1.04-1.04-1.86-2.25-2.45-3.64-.6-1.39-.89-2.86-.89-4.43ZM778.06,152.06c0,.96.17,1.85.51,2.68s.81,1.55,1.42,2.15c.61.61,1.32,1.08,2.13,1.44.82.35,1.7.52,2.66.52s1.85-.17,2.68-.52,1.54-.83,2.15-1.44,1.08-1.32,1.42-2.15c.34-.83.51-1.72.51-2.68s-.17-1.85-.51-2.68c-.34-.83-.81-1.55-1.42-2.17s-1.32-1.1-2.15-1.45c-.83-.35-1.72-.53-2.68-.53s-1.84.18-2.66.53-1.53.83-2.13,1.45c-.61.62-1.08,1.34-1.42,2.17-.34.83-.51,1.72-.51,2.68Z"/>
      </g>
    </g>
    <g class="st2">
      <g class="st2">
        <path class="st3" d="M1062.65,1217.84l-2.61-4.52,23.52-13.58,2.61,4.52-9.21,5.32,16.47,28.52c.53.91,1.04,1.87,1.54,2.87l3.77-10.54c.15-.39.36-.69.6-.91.25-.22.51-.39.79-.49.28-.11.55-.15.82-.13.27.02.5.07.71.14l3.34,1.51-6.54,18.77-4.82,2.78-22.58-39.1-8.4,4.85h-.01Z"/>
        <path class="st3" d="M1060.3,1249.55c-1.96,1.75-3.83,3.14-5.63,4.18-2.26,1.31-4.46,2.12-6.59,2.45s-4.13.24-5.99-.26c-1.87-.5-3.56-1.38-5.08-2.64-1.52-1.26-2.83-2.83-3.91-4.71-1.33-2.3-2.13-4.63-2.41-6.97-.28-2.35-.09-4.59.55-6.74s1.72-4.14,3.24-5.97,3.39-3.39,5.61-4.67c1.31-.76,2.64-1.35,3.97-1.77s2.64-.71,3.92-.87,2.53-.21,3.73-.15c1.21.06,2.33.2,3.38.43l-.35,3.6c-.06.79-.41,1.37-1.05,1.74-.42.25-.99.36-1.68.34-.7-.02-1.51-.01-2.44.01-.93.02-1.97.16-3.12.41s-2.39.75-3.73,1.53c-1.47.85-2.67,1.86-3.57,3.01-.91,1.16-1.52,2.41-1.84,3.75s-.34,2.74-.08,4.21c.27,1.46.82,2.93,1.68,4.41.76,1.31,1.63,2.38,2.62,3.21s2.09,1.39,3.29,1.7c1.2.3,2.49.32,3.87.05,1.38-.27,2.84-.85,4.37-1.74,2.14-1.24,4.2-2.94,6.19-5.11l4.36-1.06,8.32,22.6-20.85,12.04-1.49-2.58c-.49-.85-.62-1.7-.4-2.54s.97-1.63,2.22-2.35l13.25-7.65-4.35-11.88h-.01Z"/>
        <path class="st3" d="M999.86,1277.09c-2.19-3.8-3.69-7.33-4.48-10.59s-1-6.22-.63-8.87,1.26-4.98,2.68-6.98,3.24-3.65,5.46-4.93c2.22-1.28,4.56-2.04,7-2.26,2.44-.23,4.9.17,7.37,1.18s4.91,2.68,7.33,5c2.42,2.32,4.72,5.38,6.92,9.18,2.19,3.8,3.69,7.33,4.5,10.6.81,3.26,1.03,6.22.67,8.87s-1.25,4.97-2.66,6.97c-1.42,2-3.24,3.65-5.46,4.93s-4.56,2.04-7,2.26-4.91-.17-7.39-1.17-4.94-2.67-7.37-5c-2.44-2.33-4.75-5.39-6.94-9.19h0ZM1005.99,1273.55c1.89,3.27,3.74,5.86,5.55,7.75s3.55,3.25,5.22,4.08c1.67.82,3.26,1.18,4.76,1.07,1.5-.11,2.88-.53,4.16-1.27,1.27-.73,2.33-1.72,3.18-2.97.84-1.24,1.33-2.8,1.45-4.66s-.19-4.05-.93-6.55-2.06-5.4-3.96-8.67c-1.89-3.27-3.73-5.86-5.53-7.76-1.8-1.9-3.53-3.26-5.2-4.07-1.67-.81-3.25-1.17-4.75-1.05-1.5.11-2.88.53-4.16,1.27-1.27.73-2.33,1.72-3.18,2.97-.85,1.24-1.33,2.79-1.46,4.64s.17,4.04.91,6.55,2.05,5.41,3.94,8.68h0Z"/>
        <path class="st3" d="M1002.72,1291.97c.79,1.37,1.28,2.81,1.46,4.31s.08,2.95-.31,4.36-1.04,2.72-1.95,3.94c-.92,1.21-2.08,2.23-3.49,3.05-1.41.82-2.88,1.32-4.4,1.51-1.52.19-2.99.1-4.41-.26s-2.74-1-3.95-1.9c-1.21-.91-2.21-2.04-3-3.42-.78-1.35-1.26-2.78-1.44-4.28s-.07-2.96.32-4.39c.39-1.42,1.04-2.75,1.96-3.98.92-1.23,2.09-2.26,3.5-3.07s2.88-1.31,4.39-1.49c1.52-.17,2.98-.07,4.4.31,1.42.38,2.73,1.02,3.94,1.93,1.21.9,2.21,2.03,2.99,3.39h-.01ZM998.52,1294.35c-.48-.83-1.07-1.52-1.78-2.07s-1.47-.93-2.3-1.16-1.68-.28-2.57-.17c-.88.11-1.74.4-2.57.88s-1.51,1.08-2.06,1.79c-.54.72-.92,1.49-1.15,2.32-.22.83-.27,1.69-.15,2.57s.42,1.74.9,2.57c.48.83,1.07,1.52,1.78,2.06.71.55,1.48.94,2.31,1.17.83.23,1.7.29,2.59.18s1.75-.41,2.58-.88c.83-.48,1.51-1.07,2.04-1.79.53-.71.91-1.49,1.12-2.33.22-.84.26-1.7.14-2.59s-.42-1.75-.9-2.57l.02.02Z"/>
      </g>
    </g>
    <g class="st2">
      <g class="st2">
        <path class="st3" d="M394.64,261.56c-.86-2.2-1.33-4.3-1.38-6.31-.06-2.01.24-3.9.89-5.67.65-1.76,1.64-3.38,2.96-4.84,1.32-1.46,2.92-2.74,4.8-3.82,1.88-1.08,3.76-1.81,5.65-2.19,1.88-.38,3.67-.4,5.36-.06,1.69.33,3.24,1.01,4.66,2.02,1.42,1.01,2.61,2.35,3.56,4,.8,1.39,1.35,2.73,1.62,4s.33,2.49.16,3.67c-.17,1.18-.55,2.3-1.14,3.38-.59,1.08-1.34,2.13-2.27,3.15,3.21-.83,6.01-.78,8.4.14,2.39.92,4.35,2.71,5.88,5.36,1.18,2.04,1.85,4.1,2.03,6.17.17,2.07-.09,4.05-.77,5.94-.69,1.89-1.74,3.65-3.17,5.26-1.42,1.62-3.14,3-5.14,4.16-2.28,1.32-4.4,2.17-6.36,2.56-1.96.39-3.8.42-5.53.08-1.73-.34-3.38-.99-4.95-1.95-1.57-.97-3.1-2.14-4.59-3.51l1.95-2.58c.5-.67,1.1-1.12,1.8-1.36.7-.24,1.36-.15,1.98.27.65.43,1.4.91,2.23,1.44s1.78.94,2.83,1.23c1.06.29,2.22.38,3.49.27,1.27-.11,2.66-.61,4.18-1.48,1.46-.84,2.59-1.81,3.41-2.92.82-1.1,1.37-2.25,1.66-3.42.29-1.18.35-2.34.18-3.48s-.52-2.16-1.05-3.07c-.65-1.13-1.4-2.09-2.23-2.88-.83-.79-1.84-1.29-3.03-1.5-1.19-.22-2.6-.11-4.24.32-1.64.43-3.59,1.3-5.85,2.61l-2.48-4.3c1.85-1.09,3.31-2.19,4.38-3.3s1.82-2.21,2.23-3.31c.42-1.1.54-2.2.38-3.29s-.55-2.19-1.18-3.28c-.69-1.19-1.47-2.13-2.35-2.81s-1.82-1.13-2.82-1.34c-1-.22-2.04-.21-3.1,0-1.07.23-2.13.64-3.18,1.25s-1.93,1.32-2.65,2.13c-.71.82-1.26,1.7-1.63,2.64s-.58,1.92-.61,2.94.1,2.02.4,3c.16.93.1,1.65-.18,2.17-.28.51-.87.93-1.76,1.26l-3.44,1.26v-.02Z"/>
        <path class="st3" d="M429.8,241.27c-.86-2.19-1.33-4.3-1.38-6.31-.06-2.01.24-3.9.89-5.67s1.64-3.38,2.96-4.84c1.32-1.46,2.92-2.74,4.8-3.82s3.76-1.81,5.65-2.19c1.88-.37,3.67-.4,5.36-.06,1.69.33,3.24,1.01,4.66,2.02,1.42,1.01,2.61,2.35,3.56,4,.8,1.39,1.35,2.73,1.62,4s.33,2.49.16,3.67-.55,2.3-1.14,3.38c-.59,1.08-1.34,2.13-2.26,3.15,3.21-.83,6.01-.78,8.4.14,2.39.92,4.35,2.71,5.88,5.36,1.18,2.04,1.85,4.1,2.02,6.17.17,2.07-.09,4.05-.77,5.94-.69,1.89-1.74,3.65-3.17,5.26-1.42,1.62-3.14,3-5.14,4.16-2.28,1.32-4.4,2.17-6.36,2.56-1.96.39-3.8.42-5.53.08-1.73-.34-3.38-.99-4.95-1.95s-3.1-2.14-4.59-3.51l1.95-2.58c.5-.67,1.1-1.12,1.8-1.36.7-.24,1.36-.15,1.98.27.65.43,1.4.91,2.23,1.44.83.53,1.78.94,2.83,1.23,1.06.29,2.22.38,3.49.27,1.27-.11,2.66-.61,4.18-1.48,1.46-.84,2.59-1.81,3.41-2.92.82-1.1,1.37-2.25,1.66-3.42.29-1.18.35-2.34.18-3.48s-.52-2.16-1.05-3.07c-.65-1.13-1.4-2.09-2.23-2.88-.83-.79-1.84-1.29-3.03-1.5-1.19-.22-2.6-.11-4.24.32-1.63.43-3.59,1.3-5.85,2.61l-2.49-4.3c1.85-1.09,3.31-2.19,4.38-3.3,1.07-1.1,1.82-2.21,2.23-3.31.42-1.1.54-2.2.38-3.29s-.55-2.19-1.18-3.28c-.69-1.19-1.47-2.13-2.35-2.81s-1.82-1.13-2.82-1.34c-1-.22-2.04-.21-3.1,0-1.07.23-2.13.64-3.18,1.25s-1.93,1.32-2.65,2.13c-.71.82-1.26,1.7-1.63,2.64s-.58,1.92-.61,2.94.1,2.02.4,3c.16.93.1,1.65-.18,2.17-.28.51-.87.93-1.76,1.26l-3.44,1.26.02-.02Z"/>
        <path class="st3" d="M500.33,213.76c2.19,3.8,3.69,7.33,4.48,10.59s1,6.22.63,8.87-1.26,4.98-2.68,6.98-3.24,3.65-5.46,4.93-4.56,2.04-7,2.26c-2.44.23-4.9-.17-7.37-1.18s-4.91-2.68-7.33-5-4.72-5.38-6.92-9.18c-2.19-3.8-3.69-7.33-4.5-10.6-.81-3.26-1.03-6.22-.67-8.87s1.25-4.97,2.66-6.97c1.42-2,3.24-3.65,5.46-4.93s4.56-2.04,7-2.26,4.91.17,7.39,1.17,4.94,2.67,7.37,5c2.44,2.33,4.75,5.39,6.94,9.19h0ZM494.2,217.3c-1.89-3.27-3.74-5.86-5.55-7.75s-3.55-3.25-5.22-4.08c-1.67-.82-3.26-1.18-4.76-1.07-1.5.11-2.88.53-4.16,1.27-1.27.73-2.33,1.72-3.18,2.97-.84,1.24-1.33,2.8-1.45,4.66-.12,1.86.19,4.05.93,6.55.75,2.51,2.06,5.4,3.96,8.67,1.89,3.27,3.73,5.86,5.53,7.76s3.53,3.26,5.2,4.07,3.25,1.17,4.75,1.06,2.88-.53,4.16-1.27c1.27-.73,2.33-1.72,3.18-2.97.85-1.24,1.33-2.79,1.46-4.64s-.17-4.04-.91-6.55c-.74-2.51-2.05-5.4-3.94-8.68h0Z"/>
        <path class="st3" d="M497.47,198.88c-.79-1.37-1.28-2.81-1.46-4.31s-.08-2.95.31-4.36c.39-1.41,1.04-2.72,1.95-3.94.92-1.22,2.08-2.23,3.49-3.05s2.88-1.32,4.4-1.51c1.52-.19,2.99-.1,4.41.26s2.74,1,3.95,1.9,2.21,2.04,3,3.42c.78,1.35,1.26,2.78,1.44,4.28s.07,2.96-.32,4.39c-.39,1.42-1.04,2.75-1.96,3.98-.92,1.23-2.09,2.26-3.5,3.07s-2.88,1.31-4.39,1.49c-1.52.17-2.98.07-4.4-.31-1.42-.38-2.73-1.02-3.94-1.93-1.21-.9-2.21-2.03-2.99-3.39h.01ZM501.67,196.5c.48.83,1.07,1.52,1.78,2.07s1.47.93,2.3,1.15,1.68.28,2.57.18c.88-.11,1.74-.4,2.57-.88.83-.48,1.51-1.08,2.06-1.79.54-.72.92-1.49,1.15-2.32.22-.83.27-1.69.15-2.57s-.42-1.74-.9-2.57c-.48-.83-1.07-1.52-1.78-2.06-.71-.55-1.48-.94-2.31-1.17s-1.7-.29-2.59-.18c-.89.11-1.75.41-2.58.88-.83.48-1.51,1.07-2.04,1.79-.53.71-.91,1.49-1.12,2.33-.22.84-.26,1.7-.14,2.59s.42,1.75.9,2.57l-.02-.02Z"/>
      </g>
    </g>
    <g class="st2">
      <g class="st2">
        <path class="st3" d="M1256.72,996.81l-4.52-2.61,13.58-23.52,4.52,2.61-5.32,9.21,28.52,16.47c.91.52,1.83,1.1,2.77,1.72l-2-11.02c-.06-.41-.04-.78.07-1.09s.25-.59.43-.82c.19-.23.4-.4.64-.52s.47-.2.68-.23l3.64-.36,3.72,19.53-2.78,4.82-39.1-22.58-4.85,8.4h0Z"/>
        <path class="st3" d="M1238.14,1031.51c-.37.65-.85,1.04-1.44,1.19-.58.15-1.18.05-1.79-.3l-3.58-2.06,16.87-29.22,2.03,1.17c.4.23.79.56,1.15.99.36.42.61.93.76,1.53l5.85,21.72c.49,1.82,1,3.5,1.53,5.05s1.15,2.95,1.83,4.21c.69,1.26,1.48,2.39,2.39,3.38s1.98,1.85,3.21,2.56c1.21.7,2.39,1.12,3.53,1.27s2.21.06,3.2-.25c.99-.32,1.9-.84,2.73-1.58.83-.73,1.54-1.63,2.15-2.68s1.01-2.1,1.22-3.16.23-2.08.08-3.08-.46-1.95-.94-2.85-1.09-1.7-1.85-2.4c-.61-.73-.91-1.38-.92-1.97s.29-1.25.91-2l2.33-2.78c1.86,1.45,3.31,3.03,4.37,4.75,1.06,1.71,1.74,3.5,2.06,5.35.32,1.85.27,3.75-.14,5.67-.41,1.93-1.16,3.84-2.25,5.71-1.1,1.9-2.39,3.49-3.87,4.78s-3.09,2.21-4.82,2.78c-1.73.56-3.54.75-5.43.54-1.89-.2-3.78-.85-5.68-1.95-1.62-.93-2.98-2.04-4.09-3.31s-2.05-2.68-2.83-4.22c-.78-1.54-1.45-3.2-2.01-4.96s-1.09-3.6-1.61-5.51l-4.91-17.54c-.27.98-.58,1.94-.93,2.88-.36.94-.75,1.79-1.2,2.56l-7.93,13.73h.02Z"/>
        <path class="st3" d="M1231.97,1079.52c-3.8-2.19-6.86-4.5-9.17-6.93-2.32-2.43-3.98-4.88-4.98-7.36-1.01-2.48-1.4-4.94-1.17-7.39.22-2.44.98-4.78,2.26-7s2.93-4.04,4.93-5.46,4.33-2.3,6.97-2.66c2.65-.36,5.6-.14,8.85.67,3.26.8,6.78,2.3,10.58,4.49s6.86,4.5,9.2,6.93c2.33,2.42,4,4.87,5.02,7.34,1.01,2.47,1.41,4.93,1.18,7.37-.22,2.44-.98,4.78-2.26,7s-2.93,4.04-4.93,5.46c-2,1.42-4.33,2.31-6.98,2.68s-5.61.15-8.88-.64c-3.27-.8-6.81-2.29-10.6-4.49h-.02ZM1235.5,1073.39c3.27,1.89,6.17,3.2,8.68,3.94s4.7,1.04,6.56.92c1.86-.12,3.42-.61,4.66-1.45,1.24-.85,2.23-1.91,2.97-3.18.73-1.27,1.16-2.66,1.27-4.16s-.25-3.09-1.07-4.76c-.83-1.68-2.19-3.41-4.09-5.21-1.9-1.8-4.49-3.64-7.76-5.53s-6.16-3.21-8.67-3.95c-2.5-.75-4.68-1.06-6.54-.93-1.85.13-3.4.62-4.64,1.46s-2.23,1.9-2.97,3.18c-.73,1.27-1.16,2.66-1.27,4.16s.24,3.08,1.05,4.75,2.17,3.41,4.06,5.21c1.89,1.81,4.48,3.66,7.75,5.55h0Z"/>
        <path class="st3" d="M1241.88,1090.98c1.37.79,2.51,1.79,3.42,3,.9,1.21,1.54,2.52,1.91,3.93s.46,2.87.28,4.38-.68,2.97-1.5,4.39c-.82,1.41-1.83,2.58-3.06,3.51-1.22.92-2.54,1.59-3.95,1.98-1.42.4-2.87.5-4.37.33-1.5-.18-2.94-.67-4.31-1.46-1.35-.78-2.48-1.78-3.39-2.99s-1.54-2.53-1.92-3.96c-.38-1.43-.47-2.91-.29-4.43.18-1.53.68-3,1.5-4.41s1.84-2.58,3.06-3.48c1.22-.91,2.55-1.55,3.97-1.93,1.42-.38,2.88-.48,4.38-.3,1.5.18,2.93.66,4.28,1.44h-.01ZM1239.44,1095.14c-.83-.48-1.69-.78-2.57-.9s-1.74-.07-2.57.15-1.6.6-2.31,1.13c-.71.53-1.31,1.21-1.78,2.04-.48.83-.77,1.69-.88,2.58s-.06,1.75.17,2.58c.22.83.61,1.6,1.16,2.3s1.24,1.3,2.07,1.78,1.69.78,2.57.9c.89.12,1.75.07,2.59-.14.84-.22,1.62-.6,2.33-1.14.72-.54,1.32-1.23,1.79-2.06.48-.83.77-1.68.88-2.57.11-.88.04-1.74-.19-2.58-.23-.83-.62-1.61-1.17-2.31-.55-.71-1.24-1.3-2.06-1.78l-.03.02Z"/>
      </g>
    </g>
    <g class="st2">
      <g class="st2">
        <path class="st3" d="M197.99,506.1c-1.84-1.47-3.3-3.06-4.35-4.78-1.06-1.71-1.74-3.5-2.06-5.35-.32-1.85-.27-3.75.14-5.68s1.16-3.83,2.25-5.71c1.08-1.88,2.35-3.45,3.8-4.72s2.98-2.18,4.61-2.73c1.63-.56,3.31-.75,5.04-.58,1.74.17,3.43.73,5.09,1.69,1.39.81,2.53,1.69,3.4,2.65s1.53,1.99,1.97,3.1.68,2.27.71,3.5c.03,1.23-.1,2.52-.39,3.86,2.37-2.32,4.82-3.69,7.35-4.08,2.53-.4,5.12.17,7.77,1.7,2.04,1.18,3.65,2.62,4.84,4.33s1.95,3.55,2.3,5.53.31,4.03-.11,6.14c-.42,2.11-1.22,4.17-2.37,6.17-1.32,2.28-2.73,4.08-4.23,5.4s-3.08,2.26-4.75,2.83-3.42.84-5.26.78c-1.84-.05-3.75-.3-5.73-.74l.4-3.21c.1-.83.39-1.52.88-2.08.48-.56,1.1-.81,1.85-.75.78.05,1.67.09,2.65.14.99.04,2.01-.07,3.07-.35,1.06-.28,2.11-.78,3.16-1.51,1.04-.73,2-1.86,2.88-3.37.84-1.46,1.34-2.86,1.49-4.23.16-1.36.06-2.63-.27-3.79-.34-1.17-.87-2.2-1.59-3.1s-1.53-1.61-2.44-2.14c-1.13-.65-2.25-1.11-3.37-1.38-1.11-.27-2.24-.19-3.38.21-1.14.41-2.31,1.21-3.51,2.4s-2.46,2.92-3.76,5.18l-4.3-2.48c1.05-1.87,1.77-3.55,2.14-5.05.38-1.49.47-2.82.28-3.98s-.63-2.17-1.32-3.04c-.68-.87-1.57-1.62-2.66-2.25-1.19-.69-2.34-1.11-3.44-1.26-1.1-.15-2.14-.07-3.11.24s-1.87.83-2.68,1.56-1.52,1.62-2.13,2.67c-.61,1.05-1.01,2.11-1.23,3.17-.21,1.06-.24,2.1-.09,3.1.15,1,.46,1.95.94,2.85s1.09,1.7,1.85,2.4c.61.73.91,1.38.92,1.97s-.29,1.24-.89,1.97l-2.35,2.81h-.01Z"/>
        <path class="st3" d="M245.32,447.02c3.8,2.19,6.86,4.5,9.17,6.93,2.32,2.43,3.98,4.88,4.98,7.36,1.01,2.48,1.4,4.94,1.17,7.39-.22,2.44-.98,4.78-2.26,7s-2.93,4.04-4.93,5.46c-2,1.42-4.33,2.3-6.97,2.66-2.64.36-5.6.14-8.85-.66-3.26-.8-6.78-2.3-10.58-4.49s-6.86-4.5-9.2-6.93c-2.33-2.42-4-4.87-5.02-7.34s-1.41-4.93-1.18-7.37c.23-2.44.98-4.78,2.26-7s2.93-4.04,4.93-5.46c2-1.42,4.33-2.31,6.98-2.68s5.61-.15,8.88.64c3.27.8,6.81,2.29,10.6,4.49h.02ZM241.79,453.15c-3.27-1.89-6.17-3.2-8.68-3.94-2.51-.74-4.7-1.04-6.56-.92s-3.41.61-4.66,1.45c-1.24.85-2.23,1.9-2.97,3.18-.74,1.27-1.16,2.66-1.27,4.16s.25,3.09,1.07,4.76c.83,1.68,2.19,3.41,4.09,5.21s4.49,3.64,7.76,5.53,6.16,3.21,8.67,3.95,4.69,1.06,6.54.93c1.85-.13,3.4-.62,4.64-1.46s2.23-1.9,2.97-3.18c.73-1.27,1.16-2.66,1.27-4.16s-.24-3.08-1.05-4.75-2.17-3.41-4.06-5.21c-1.89-1.81-4.48-3.66-7.75-5.55h0Z"/>
        <path class="st3" d="M265.62,411.86c3.8,2.19,6.86,4.5,9.17,6.93,2.32,2.43,3.98,4.88,4.98,7.36,1.01,2.48,1.4,4.94,1.17,7.39-.22,2.44-.98,4.78-2.26,7s-2.93,4.04-4.93,5.46-4.33,2.3-6.97,2.66c-2.65.36-5.6.14-8.85-.67-3.26-.8-6.78-2.3-10.58-4.49s-6.86-4.5-9.2-6.93c-2.33-2.42-4-4.87-5.02-7.34-1.01-2.47-1.41-4.93-1.18-7.37.22-2.44.98-4.78,2.26-7s2.93-4.04,4.93-5.46c2-1.42,4.33-2.31,6.98-2.68s5.61-.15,8.88.64,6.81,2.29,10.6,4.49h.02ZM262.09,417.99c-3.27-1.89-6.17-3.2-8.68-3.94s-4.7-1.04-6.56-.92-3.42.61-4.66,1.45c-1.24.85-2.23,1.91-2.97,3.18-.73,1.27-1.16,2.66-1.27,4.16s.25,3.09,1.07,4.76c.83,1.68,2.19,3.41,4.09,5.21s4.49,3.64,7.76,5.53c3.27,1.89,6.16,3.21,8.67,3.95,2.5.75,4.68,1.06,6.54.93,1.85-.13,3.4-.62,4.64-1.46,1.24-.84,2.23-1.9,2.97-3.18.73-1.27,1.16-2.66,1.27-4.16s-.24-3.08-1.05-4.75-2.17-3.41-4.06-5.21c-1.89-1.81-4.48-3.66-7.75-5.55h-.01Z"/>
        <path class="st3" d="M255.71,400.4c-1.37-.79-2.51-1.79-3.42-3-.9-1.21-1.54-2.52-1.91-3.93-.37-1.41-.46-2.87-.28-4.38.18-1.51.68-2.97,1.5-4.39.82-1.41,1.83-2.58,3.06-3.51,1.22-.92,2.54-1.59,3.95-1.98,1.42-.4,2.87-.5,4.37-.33,1.5.18,2.94.67,4.31,1.46,1.35.78,2.48,1.78,3.39,2.99s1.54,2.53,1.92,3.96.47,2.91.29,4.43c-.18,1.53-.68,3-1.5,4.41s-1.84,2.58-3.06,3.49-2.55,1.55-3.97,1.93-2.88.48-4.38.3c-1.5-.18-2.93-.66-4.28-1.44h0ZM258.15,396.24c.83.48,1.69.78,2.57.9.89.12,1.74.07,2.57-.15.83-.22,1.6-.6,2.31-1.13s1.31-1.21,1.78-2.04c.48-.83.77-1.69.88-2.58s.06-1.75-.17-2.58c-.22-.83-.61-1.6-1.16-2.3s-1.24-1.3-2.07-1.78c-.83-.48-1.69-.78-2.57-.9-.89-.12-1.75-.07-2.59.14-.84.22-1.62.6-2.33,1.14-.72.54-1.32,1.23-1.79,2.06-.48.83-.77,1.68-.88,2.57-.11.88-.04,1.74.19,2.58.23.83.62,1.61,1.17,2.31.55.71,1.24,1.3,2.06,1.78l.03-.02Z"/>
      </g>
    </g>
    <g class="st2">
      <g class="st2">
        <path class="st3" d="M1322.32,723.92c1.19.91,2.36,1.76,3.5,2.55-.96-1.26-1.68-2.67-2.17-4.22s-.74-3.2-.74-4.95c0-1.84.32-3.61.95-5.3s1.56-3.18,2.78-4.48c1.23-1.29,2.74-2.33,4.53-3.1,1.8-.77,3.86-1.16,6.19-1.16,2.19,0,4.26.41,6.2,1.23s3.62,1.96,5.06,3.45c1.43,1.48,2.57,3.25,3.39,5.32.83,2.06,1.24,4.33,1.24,6.81s-.4,4.67-1.19,6.67-1.91,3.69-3.34,5.09c-1.43,1.4-3.16,2.48-5.16,3.25-2.01.77-4.21,1.16-6.62,1.16-1.47,0-2.87-.13-4.2-.4s-2.62-.65-3.88-1.16c-1.26-.5-2.5-1.11-3.73-1.82-1.22-.71-2.48-1.52-3.76-2.43l-17.32-12.08c-.47-.33-.85-.8-1.16-1.42-.3-.62-.46-1.32-.46-2.12v-6.27l19.88,15.37h0ZM1337.86,710.12c-3.1,0-5.5.84-7.17,2.52-1.68,1.68-2.52,4.01-2.52,7,0,1.61.26,3.03.79,4.27.52,1.24,1.22,2.28,2.1,3.13s1.89,1.5,3.04,1.94c1.16.44,2.36.67,3.62.67,1.52,0,2.89-.24,4.11-.72s2.26-1.15,3.12-2.01c.85-.86,1.5-1.88,1.96-3.06s.68-2.48.68-3.9-.24-2.81-.72-4.03c-.48-1.21-1.15-2.25-2.01-3.11s-1.89-1.53-3.08-2-2.5-.7-3.92-.7Z"/>
        <path class="st3" d="M1327.57,778.97c-4.39,0-8.19-.47-11.41-1.42-3.22-.95-5.89-2.24-8-3.88-2.11-1.65-3.68-3.58-4.71-5.81s-1.54-4.63-1.54-7.19.51-4.96,1.54-7.19,2.6-4.16,4.71-5.79,4.78-2.92,8-3.85,7.02-1.4,11.41-1.4,8.2.47,11.43,1.4c3.23.93,5.9,2.22,8.01,3.85s3.68,3.56,4.71,5.79c1.03,2.23,1.54,4.62,1.54,7.19s-.51,4.96-1.54,7.19-2.6,4.17-4.71,5.81-4.78,2.94-8.01,3.88c-3.23.95-7.04,1.42-11.43,1.42ZM1327.57,771.9c3.78,0,6.94-.31,9.49-.93,2.54-.62,4.59-1.45,6.14-2.49s2.65-2.23,3.31-3.59c.65-1.35.98-2.77.98-4.24s-.33-2.88-.98-4.24c-.65-1.35-1.76-2.55-3.31-3.59-1.55-1.04-3.6-1.86-6.14-2.47s-5.71-.91-9.49-.91-6.94.3-9.49.91-4.58,1.43-6.12,2.47-2.64,2.23-3.29,3.59c-.65,1.35-.98,2.77-.98,4.24s.33,2.88.98,4.24c.65,1.35,1.75,2.55,3.29,3.59,1.54,1.04,3.58,1.87,6.12,2.49s5.71.93,9.49.93Z"/>
        <path class="st3" d="M1341.88,783.94c1.59,0,3.07.3,4.46.89s2.6,1.41,3.62,2.45c1.03,1.04,1.84,2.26,2.43,3.66.59,1.4.89,2.92.89,4.55s-.3,3.16-.89,4.57c-.6,1.41-1.41,2.64-2.43,3.69-1.03,1.05-2.23,1.87-3.62,2.47s-2.88.89-4.46.89-3.04-.3-4.43-.89-2.6-1.42-3.64-2.47-1.86-2.28-2.47-3.69-.91-2.93-.91-4.57.3-3.15.91-4.55c.61-1.4,1.43-2.62,2.47-3.66,1.04-1.04,2.25-1.86,3.64-2.45,1.39-.6,2.86-.89,4.43-.89ZM1341.85,788.77c-.96,0-1.85.17-2.68.51s-1.55.81-2.15,1.42c-.61.61-1.08,1.32-1.44,2.13-.35.82-.52,1.7-.52,2.66s.17,1.85.52,2.68.83,1.54,1.44,2.15,1.32,1.08,2.15,1.42c.83.34,1.72.51,2.68.51s1.85-.17,2.68-.51c.83-.34,1.55-.81,2.17-1.42s1.1-1.32,1.45-2.15.53-1.72.53-2.68-.18-1.84-.53-2.66-.83-1.53-1.45-2.13c-.62-.61-1.34-1.08-2.17-1.42-.83-.34-1.72-.51-2.68-.51Z"/>
      </g>
    </g>
    <g class="st2">
      <g class="st2">
        <path class="st3" d="M1248.96,434.78c-.64-.09-1.27-.18-1.88-.27s-1.2-.18-1.78-.25c1.19.61,2.29,1.4,3.32,2.39,1.03.98,1.94,2.16,2.73,3.54.99,1.72,1.65,3.52,1.99,5.4.33,1.88.29,3.73-.11,5.54-.41,1.81-1.22,3.53-2.44,5.15s-2.88,3.04-4.98,4.25c-2,1.15-4.08,1.87-6.25,2.15s-4.28.13-6.32-.45c-2.05-.58-3.97-1.58-5.77-2.99s-3.35-3.24-4.64-5.48c-1.28-2.22-2.09-4.43-2.41-6.63-.33-2.2-.2-4.3.37-6.32s1.59-3.9,3.04-5.65c1.45-1.75,3.31-3.29,5.57-4.59,1.94-1.12,4.23-1.88,6.86-2.29,2.64-.41,5.7-.4,9.2,0l20.86,2.46c.58.07,1.16.3,1.75.69s1.09.94,1.49,1.64l3.04,5.27-23.64-3.57h0ZM1227.69,450.78c.8,1.39,1.76,2.53,2.87,3.39,1.11.87,2.29,1.48,3.54,1.83,1.25.35,2.56.44,3.9.25,1.35-.19,2.66-.65,3.93-1.38,1.39-.81,2.52-1.74,3.37-2.81s1.43-2.22,1.75-3.44.36-2.49.14-3.82c-.23-1.32-.72-2.65-1.5-3.99-.8-1.39-1.77-2.51-2.88-3.35-1.12-.84-2.3-1.42-3.55-1.75s-2.54-.39-3.85-.2c-1.32.2-2.56.63-3.73,1.31-1.33.77-2.45,1.67-3.33,2.69s-1.51,2.14-1.87,3.34-.45,2.47-.27,3.81c.18,1.34.67,2.7,1.48,4.1v.02Z"/>
        <path class="st3" d="M1274.47,491.83c-3.8,2.19-7.33,3.69-10.59,4.48s-6.22,1-8.87.63-4.98-1.26-6.98-2.68c-2-1.42-3.65-3.24-4.93-5.46s-2.04-4.56-2.26-7c-.23-2.44.17-4.9,1.18-7.37s2.68-4.92,5-7.33,5.38-4.72,9.18-6.92,7.33-3.69,10.6-4.5c3.26-.81,6.22-1.03,8.87-.67,2.64.36,4.97,1.25,6.97,2.66s3.65,3.24,4.93,5.46,2.04,4.56,2.26,7-.17,4.9-1.17,7.38-2.67,4.94-5,7.37-5.39,4.75-9.19,6.94h0ZM1270.93,485.7c3.27-1.89,5.86-3.74,7.75-5.55s3.25-3.55,4.08-5.22c.82-1.68,1.18-3.26,1.07-4.76-.11-1.5-.53-2.88-1.27-4.16-.74-1.27-1.73-2.33-2.97-3.18-1.24-.84-2.8-1.33-4.66-1.45-1.86-.12-4.05.19-6.55.93-2.51.75-5.4,2.06-8.67,3.96-3.27,1.89-5.86,3.73-7.76,5.53s-3.26,3.53-4.07,5.2-1.17,3.25-1.05,4.75c.11,1.5.53,2.88,1.27,4.16s1.72,2.33,2.97,3.18c1.24.85,2.79,1.33,4.64,1.46s4.04-.17,6.55-.91,5.4-2.05,8.68-3.94h0Z"/>
        <path class="st3" d="M1289.35,488.97c1.37-.79,2.81-1.28,4.31-1.46s2.95-.08,4.36.31c1.41.39,2.72,1.04,3.94,1.95,1.21.92,2.23,2.08,3.05,3.49.82,1.41,1.32,2.88,1.51,4.4.19,1.52.1,2.99-.26,4.41s-1,2.74-1.9,3.95c-.91,1.21-2.04,2.21-3.42,3-1.35.78-2.78,1.26-4.28,1.44s-2.96.07-4.39-.32c-1.42-.39-2.75-1.04-3.98-1.96-1.23-.92-2.26-2.09-3.07-3.5-.82-1.42-1.31-2.88-1.49-4.4-.17-1.52-.07-2.98.31-4.4.38-1.42,1.02-2.73,1.93-3.94.9-1.21,2.03-2.21,3.39-2.99v.02ZM1291.73,493.17c-.83.48-1.52,1.07-2.07,1.78-.55.71-.93,1.47-1.15,2.3s-.28,1.68-.18,2.57c.11.88.4,1.74.88,2.57.48.83,1.08,1.51,1.79,2.06s1.49.92,2.32,1.15c.83.22,1.69.27,2.57.15.89-.12,1.74-.42,2.57-.9.83-.48,1.52-1.07,2.07-1.78.55-.71.94-1.48,1.17-2.31.23-.83.29-1.7.18-2.59-.11-.89-.41-1.75-.88-2.58-.48-.83-1.07-1.51-1.79-2.04-.71-.53-1.49-.91-2.33-1.12-.84-.22-1.7-.26-2.59-.14s-1.75.42-2.57.9v-.02Z"/>
      </g>
    </g>
    <g class="st2">
      <g class="st2">
        <path class="st3" d="M280.07,1067.22c-.37-.65-.48-1.26-.31-1.84.16-.58.55-1.04,1.15-1.39l3.58-2.06,16.87,29.22-2.03,1.17c-.4.23-.88.4-1.43.5s-1.12.07-1.7-.11l-21.74-5.8c-1.82-.49-3.53-.88-5.14-1.2-1.61-.31-3.13-.48-4.56-.52-1.43-.03-2.81.09-4.12.38s-2.59.79-3.82,1.5c-1.21.7-2.17,1.51-2.87,2.42-.7.92-1.16,1.88-1.38,2.9s-.22,2.07,0,3.15c.22,1.08.64,2.15,1.24,3.2s1.32,1.93,2.12,2.63c.81.7,1.69,1.24,2.63,1.61s1.92.57,2.94.61c1.02.03,2.02-.1,3-.4.93-.16,1.65-.1,2.17.18.51.28.94.88,1.28,1.79l1.24,3.41c-2.18.88-4.28,1.36-6.3,1.41-2.01.06-3.9-.24-5.67-.89-1.76-.65-3.38-1.64-4.84-2.96-1.46-1.32-2.74-2.92-3.82-4.8-1.1-1.9-1.83-3.81-2.2-5.74-.37-1.93-.37-3.78,0-5.56s1.12-3.44,2.24-4.97c1.12-1.54,2.63-2.85,4.53-3.95,1.62-.93,3.25-1.56,4.91-1.89,1.66-.32,3.35-.44,5.08-.34,1.73.1,3.49.34,5.3.74s3.67.85,5.58,1.37l17.65,4.52c-.71-.72-1.39-1.47-2.02-2.25-.64-.78-1.18-1.55-1.62-2.32l-7.93-13.73h0Z"/>
        <path class="st3" d="M247.41,1034.39l3.43-1.98c.34-.2.7-.26,1.07-.17.37.08.67.33.91.73l2.91,5.03,11.21-6.47,2.99,5.18-11.22,6.48,11.03,19.1c.26.44.35.89.27,1.34-.08.45-.28.83-.6,1.16l-2.68,2.36-40.12-4.88-3.22-5.58,27.67-15.98-3.64-6.3v-.02ZM254.04,1045.87l-16.97,9.8c-.58.34-1.22.68-1.89,1.03s-1.39.68-2.16.98l29.69,3.19-8.66-15h0Z"/>
        <path class="st3" d="M221.28,1002.71c3.8-2.19,7.33-3.69,10.59-4.48s6.22-1,8.87-.63,4.98,1.26,6.98,2.68,3.65,3.24,4.93,5.46c1.28,2.22,2.04,4.56,2.26,7,.23,2.44-.17,4.9-1.18,7.37s-2.68,4.91-5,7.33-5.38,4.72-9.18,6.92c-3.8,2.19-7.33,3.69-10.6,4.5-3.26.81-6.22,1.03-8.87.67s-4.97-1.25-6.97-2.66c-2-1.42-3.65-3.24-4.93-5.46s-2.04-4.56-2.26-7,.17-4.91,1.17-7.39,2.67-4.94,5-7.37c2.33-2.44,5.39-4.75,9.19-6.94h0ZM224.82,1008.83c-3.27,1.89-5.86,3.74-7.75,5.55s-3.25,3.55-4.08,5.22c-.82,1.67-1.18,3.26-1.07,4.76.11,1.5.53,2.88,1.27,4.16.73,1.27,1.72,2.33,2.97,3.18,1.24.84,2.8,1.33,4.66,1.45s4.05-.19,6.55-.93,5.4-2.06,8.67-3.96c3.27-1.89,5.86-3.73,7.76-5.53,1.9-1.8,3.26-3.53,4.07-5.2.81-1.67,1.17-3.25,1.06-4.75s-.53-2.88-1.27-4.16c-.73-1.27-1.72-2.33-2.97-3.18-1.24-.85-2.79-1.33-4.64-1.46s-4.04.17-6.55.91c-2.51.74-5.4,2.05-8.68,3.94h0Z"/>
        <path class="st3" d="M206.4,1005.57c-1.37.79-2.81,1.28-4.31,1.46s-2.95.08-4.36-.31-2.72-1.04-3.94-1.95c-1.21-.92-2.23-2.08-3.05-3.49s-1.32-2.88-1.51-4.4c-.19-1.52-.1-2.99.26-4.41s1-2.74,1.9-3.95,2.04-2.21,3.42-3c1.35-.78,2.78-1.26,4.28-1.44s2.96-.07,4.39.32c1.42.39,2.75,1.04,3.98,1.96,1.23.92,2.26,2.09,3.07,3.5s1.31,2.88,1.49,4.39c.17,1.52.07,2.98-.31,4.4-.38,1.42-1.02,2.73-1.93,3.94-.9,1.21-2.03,2.21-3.39,2.99h0ZM204.02,1001.37c.83-.48,1.52-1.07,2.07-1.78s.93-1.47,1.15-2.3.28-1.68.18-2.57c-.11-.88-.4-1.74-.88-2.57-.48-.83-1.08-1.51-1.79-2.06-.72-.54-1.49-.92-2.32-1.15-.83-.22-1.69-.27-2.57-.15-.89.12-1.74.42-2.57.9-.83.48-1.52,1.07-2.06,1.78-.55.71-.94,1.48-1.17,2.31s-.29,1.7-.18,2.59.41,1.75.88,2.58c.48.83,1.07,1.51,1.79,2.04.71.53,1.49.91,2.33,1.12.84.22,1.7.26,2.59.14s1.75-.42,2.57-.9l-.02.02Z"/>
      </g>
    </g>
    <g class="st2">
      <g class="st2">
        <path class="st3" d="M1020.75,211c1.47-1.84,3.06-3.3,4.78-4.35,1.71-1.06,3.5-1.74,5.35-2.06,1.85-.32,3.75-.27,5.68.14s3.83,1.16,5.71,2.25c1.88,1.08,3.45,2.35,4.72,3.8s2.18,2.98,2.73,4.61.75,3.31.58,5.04c-.17,1.74-.73,3.43-1.69,5.09-.8,1.39-1.69,2.53-2.65,3.4-.96.87-1.99,1.53-3.1,1.97-1.1.44-2.27.68-3.5.71-1.23.03-2.52-.1-3.86-.39,2.33,2.37,3.69,4.82,4.08,7.35.4,2.53-.17,5.12-1.7,7.77-1.18,2.04-2.62,3.65-4.33,4.84s-3.55,1.95-5.53,2.3-4.03.31-6.14-.11-4.17-1.22-6.17-2.37c-2.28-1.32-4.08-2.73-5.4-4.23s-2.26-3.08-2.83-4.75-.84-3.42-.78-5.26c.05-1.84.3-3.75.74-5.73l3.21.4c.83.1,1.52.39,2.08.88.56.48.81,1.1.75,1.85-.05.78-.09,1.67-.14,2.65-.04.99.07,2.01.35,3.07.28,1.06.78,2.11,1.51,3.16.73,1.04,1.86,2,3.37,2.88,1.46.84,2.86,1.34,4.23,1.49,1.37.16,2.63.06,3.79-.27,1.17-.34,2.2-.87,3.1-1.59s1.61-1.53,2.14-2.44c.65-1.13,1.11-2.25,1.38-3.37.26-1.11.19-2.24-.21-3.38-.41-1.14-1.21-2.31-2.4-3.51-1.19-1.2-2.92-2.46-5.18-3.76l2.48-4.3c1.87,1.05,3.55,1.77,5.04,2.14,1.49.38,2.82.47,3.98.28s2.17-.63,3.04-1.32c.87-.68,1.62-1.57,2.24-2.66.69-1.19,1.11-2.34,1.26-3.44s.07-2.14-.24-3.11c-.31-.97-.83-1.87-1.56-2.68-.73-.81-1.62-1.52-2.67-2.13s-2.11-1.01-3.17-1.23c-1.06-.21-2.1-.24-3.1-.09-1,.15-1.95.46-2.85.94s-1.7,1.09-2.4,1.85c-.73.61-1.38.91-1.97.92s-1.24-.29-1.97-.89l-2.81-2.35h.03Z"/>
        <path class="st3" d="M1079.83,258.33c-2.19,3.8-4.5,6.86-6.93,9.17-2.43,2.32-4.88,3.98-7.36,4.98-2.48,1.01-4.94,1.4-7.38,1.17-2.44-.22-4.78-.98-7-2.26s-4.04-2.93-5.46-4.93c-1.42-2-2.3-4.33-2.66-6.97s-.14-5.6.67-8.85c.8-3.26,2.3-6.78,4.49-10.58s4.5-6.86,6.93-9.2c2.42-2.33,4.87-4,7.34-5.02,2.47-1.01,4.93-1.41,7.37-1.18,2.44.23,4.78.98,7,2.26s4.04,2.93,5.46,4.93c1.42,2,2.31,4.33,2.68,6.98s.15,5.61-.64,8.88c-.8,3.27-2.29,6.81-4.49,10.6l-.02.02ZM1073.71,254.8c1.89-3.27,3.2-6.17,3.94-8.68.74-2.51,1.04-4.7.92-6.56s-.61-3.41-1.45-4.66c-.85-1.24-1.91-2.23-3.18-2.97s-2.66-1.16-4.16-1.27-3.09.25-4.76,1.07c-1.68.83-3.41,2.19-5.21,4.09-1.8,1.9-3.64,4.49-5.53,7.76s-3.21,6.16-3.96,8.67-1.05,4.69-.93,6.54c.13,1.85.62,3.4,1.46,4.64.84,1.24,1.9,2.23,3.18,2.97,1.27.73,2.66,1.16,4.16,1.27s3.08-.24,4.75-1.05,3.41-2.17,5.21-4.06c1.81-1.89,3.66-4.48,5.55-7.75h.01Z"/>
        <path class="st3" d="M1091.29,248.42c.79-1.37,1.79-2.51,3-3.42s2.52-1.54,3.93-1.91c1.41-.37,2.87-.46,4.38-.28s2.97.68,4.39,1.5c1.41.82,2.58,1.83,3.51,3.06.92,1.22,1.59,2.54,1.98,3.95.4,1.42.5,2.87.33,4.37-.17,1.5-.67,2.94-1.46,4.31-.78,1.35-1.78,2.48-2.99,3.39s-2.53,1.54-3.96,1.92c-1.43.38-2.91.47-4.43.29-1.53-.18-3-.68-4.41-1.49-1.41-.82-2.58-1.84-3.48-3.06-.91-1.22-1.55-2.55-1.93-3.97-.38-1.42-.48-2.88-.3-4.38.18-1.5.66-2.93,1.44-4.28h0ZM1095.45,250.86c-.48.83-.78,1.69-.9,2.57-.12.89-.07,1.74.15,2.57s.6,1.6,1.13,2.31,1.21,1.31,2.04,1.78,1.69.77,2.58.88c.89.11,1.75.05,2.58-.17s1.6-.61,2.3-1.16,1.3-1.24,1.78-2.07c.48-.83.78-1.69.9-2.57s.07-1.75-.14-2.59c-.22-.84-.6-1.62-1.14-2.33-.54-.72-1.23-1.32-2.06-1.79-.83-.48-1.68-.77-2.57-.88s-1.74-.04-2.58.19-1.61.62-2.31,1.17c-.71.55-1.3,1.24-1.78,2.07l.02.02Z"/>
      </g>
    </g>
    <g class="st2">
      <g class="st2">
        <path class="st3" d="M496.32,1259.22c-.65-.37-1.04-.85-1.19-1.44-.15-.58-.05-1.18.3-1.79l2.06-3.58,29.22,16.87-1.17,2.03c-.23.4-.56.79-.99,1.15s-.93.61-1.53.75l-21.72,5.85c-1.82.49-3.5,1-5.05,1.53s-2.95,1.14-4.21,1.83c-1.26.69-2.39,1.48-3.38,2.39s-1.85,1.98-2.56,3.21c-.7,1.21-1.12,2.39-1.27,3.53s-.06,2.21.25,3.2.84,1.9,1.58,2.73c.73.83,1.63,1.54,2.68,2.15s2.1,1.01,3.16,1.22c1.05.2,2.08.23,3.08.08s1.95-.46,2.85-.94,1.7-1.1,2.4-1.85c.73-.61,1.38-.91,1.97-.92s1.25.29,2,.91l2.78,2.33c-1.45,1.86-3.03,3.31-4.75,4.37-1.71,1.06-3.5,1.74-5.35,2.06-1.85.32-3.75.27-5.68-.14s-3.83-1.16-5.71-2.25c-1.9-1.1-3.49-2.39-4.78-3.87s-2.21-3.09-2.78-4.82c-.56-1.73-.75-3.54-.54-5.43.2-1.89.85-3.79,1.95-5.68.93-1.62,2.04-2.98,3.31-4.09s2.68-2.06,4.22-2.83c1.54-.78,3.19-1.45,4.96-2.01,1.76-.56,3.6-1.09,5.51-1.61l17.54-4.91c-.98-.27-1.94-.58-2.88-.93-.94-.36-1.79-.75-2.56-1.2l-13.73-7.93v.03Z"/>
        <path class="st3" d="M460.69,1237.2l2.61-4.52,23.52,13.58-2.61,4.52-9.21-5.32-16.47,28.52c-.52.91-1.1,1.83-1.72,2.77l11.02-2c.41-.06.78-.04,1.09.07.32.1.59.25.82.43.23.19.4.4.52.64s.19.47.23.68l.36,3.64-19.53,3.72-4.82-2.78,22.58-39.1-8.4-4.85h.01Z"/>
        <path class="st3" d="M413.15,1232.75c2.19-3.8,4.5-6.86,6.93-9.17,2.43-2.32,4.88-3.98,7.36-4.98,2.48-1.01,4.94-1.4,7.39-1.17,2.44.22,4.78.98,7,2.26s4.04,2.93,5.46,4.93,2.3,4.33,2.66,6.97c.36,2.65.14,5.6-.67,8.85-.8,3.26-2.3,6.78-4.49,10.58s-4.5,6.86-6.93,9.2c-2.42,2.33-4.87,4-7.34,5.02-2.47,1.01-4.93,1.41-7.37,1.18-2.44-.22-4.78-.98-7-2.26s-4.04-2.93-5.46-4.93c-1.42-2-2.31-4.33-2.68-6.98s-.15-5.61.64-8.88,2.29-6.81,4.49-10.6v-.02ZM419.28,1236.28c-1.89,3.27-3.2,6.17-3.94,8.68s-1.04,4.7-.92,6.56c.12,1.86.61,3.42,1.45,4.66.85,1.24,1.91,2.23,3.18,2.97,1.27.73,2.66,1.16,4.16,1.27s3.09-.25,4.76-1.07c1.68-.83,3.41-2.19,5.21-4.09s3.64-4.49,5.53-7.76c1.89-3.27,3.21-6.16,3.95-8.67.75-2.5,1.06-4.68.93-6.54-.13-1.85-.62-3.4-1.46-4.64s-1.9-2.23-3.18-2.97c-1.27-.73-2.66-1.16-4.16-1.27s-3.08.24-4.75,1.05-3.41,2.17-5.21,4.06c-1.81,1.89-3.66,4.48-5.55,7.75h0Z"/>
        <path class="st3" d="M401.69,1242.66c-.79,1.37-1.79,2.51-3,3.42-1.21.9-2.52,1.54-3.93,1.91s-2.87.46-4.38.28c-1.51-.18-2.97-.68-4.39-1.5-1.41-.82-2.58-1.83-3.51-3.06-.92-1.22-1.59-2.54-1.98-3.95-.4-1.42-.5-2.87-.33-4.37.18-1.5.67-2.94,1.46-4.31.78-1.35,1.78-2.48,2.99-3.39s2.53-1.54,3.96-1.92,2.91-.47,4.43-.29c1.53.18,3,.68,4.41,1.5s2.58,1.84,3.49,3.06c.91,1.22,1.55,2.55,1.93,3.97.38,1.42.48,2.88.3,4.38-.18,1.5-.66,2.93-1.44,4.28h0ZM397.53,1240.22c.48-.83.78-1.69.9-2.57.12-.89.07-1.74-.15-2.57s-.6-1.6-1.13-2.31c-.53-.71-1.21-1.31-2.04-1.78-.83-.48-1.69-.77-2.58-.88s-1.75-.06-2.58.17c-.83.22-1.6.61-2.3,1.16s-1.3,1.24-1.78,2.07-.78,1.69-.9,2.57c-.12.89-.07,1.75.14,2.59.22.84.6,1.62,1.14,2.33.54.72,1.23,1.32,2.06,1.79.83.48,1.68.77,2.57.88.88.11,1.74.04,2.58-.19.83-.23,1.61-.62,2.31-1.17.71-.55,1.3-1.24,1.78-2.06l-.02-.03Z"/>
      </g>
    </g>
  </g>
  <g>
    <g class="st2">
      <g class="st2">
        <path class="st3" d="M778.69,356.71v71.8h-5.4c-.83,0-1.53-.15-2.08-.45s-1.11-.78-1.67-1.45l-40.55-52.45c.07.9.12,1.78.17,2.65s.08,1.68.08,2.45v49.25h-9.35v-71.8h5.5c.93,0,1.63.11,2.1.33s.98.71,1.55,1.47l40.65,52.5c-.1-.97-.17-1.91-.22-2.83-.05-.92-.08-1.77-.08-2.58v-48.9h9.3Z"/>
      </g>
    </g>
    <g class="st2">
      <g class="st2">
        <path class="st3" d="M1132.19,770.82l-.05,8.65h-44.5v-71.8h44.5v8.65h-33.8v22.75h27.2v8.35h-27.2v23.4h33.85Z"/>
      </g>
    </g>
    <g class="st2">
      <g class="st2">
        <path class="st3" d="M453.31,707.67l-22.4,71.8h-9.6l-17.5-53.25c-.4-1.07-.75-2.35-1.05-3.85-.37,1.53-.72,2.82-1.05,3.85l-17.7,53.25h-9.55l-22.4-71.8h8.9c.93,0,1.72.22,2.35.67s1.05,1.06,1.25,1.83l14.15,48.05c.27.93.51,1.95.73,3.05s.44,2.25.67,3.45c.23-1.2.48-2.35.73-3.45.25-1.1.54-2.12.88-3.05l16.2-48.05c.2-.67.62-1.25,1.27-1.75s1.42-.75,2.32-.75h3.05c.93,0,1.7.23,2.3.7s1.03,1.07,1.3,1.8l16.15,48.05c.6,1.83,1.13,3.92,1.6,6.25.4-2.3.83-4.38,1.3-6.25l14.2-48.05c.17-.67.58-1.25,1.25-1.75s1.45-.75,2.35-.75h8.3,0Z"/>
      </g>
    </g>
    <g class="st2">
      <g class="st2">
        <path class="st3" d="M770.68,1071.77c-.33.57-.68.98-1.05,1.25s-.83.4-1.4.4c-.6,0-1.28-.27-2.05-.83-.77-.55-1.72-1.17-2.88-1.85-1.15-.68-2.52-1.3-4.12-1.85-1.6-.55-3.52-.83-5.75-.83-2.1,0-3.94.27-5.52.83-1.58.55-2.91,1.3-3.98,2.25s-1.88,2.07-2.42,3.35c-.55,1.28-.83,2.67-.83,4.17,0,1.93.49,3.53,1.48,4.8.98,1.27,2.27,2.35,3.88,3.25,1.6.9,3.42,1.68,5.45,2.35,2.03.67,4.12,1.36,6.25,2.08s4.22,1.54,6.25,2.47c2.03.93,3.85,2.11,5.45,3.53,1.6,1.42,2.89,3.15,3.88,5.2.98,2.05,1.48,4.56,1.48,7.53,0,3.17-.54,6.13-1.62,8.9s-2.66,5.18-4.73,7.25-4.61,3.69-7.62,4.88c-3.02,1.18-6.44,1.77-10.27,1.77-2.3,0-4.53-.22-6.7-.67-2.17-.45-4.22-1.08-6.15-1.9-1.93-.82-3.74-1.8-5.42-2.95-1.68-1.15-3.19-2.44-4.53-3.88l3.05-5.1c.3-.4.66-.73,1.07-1,.42-.27.89-.4,1.43-.4.7,0,1.51.37,2.42,1.1.92.73,2.05,1.54,3.4,2.42,1.35.88,2.97,1.69,4.85,2.42,1.88.73,4.18,1.1,6.88,1.1,2.2,0,4.17-.29,5.9-.88s3.19-1.42,4.38-2.5,2.09-2.39,2.73-3.92c.63-1.53.95-3.23.95-5.1,0-2.1-.48-3.82-1.45-5.15-.97-1.33-2.25-2.45-3.85-3.35s-3.42-1.67-5.45-2.3-4.12-1.29-6.25-1.97c-2.13-.68-4.22-1.48-6.25-2.38s-3.85-2.08-5.45-3.53-2.88-3.27-3.85-5.45c-.97-2.18-1.45-4.88-1.45-8.08,0-2.57.5-5.05,1.5-7.45,1-2.4,2.46-4.53,4.38-6.38s4.27-3.33,7.07-4.45,6-1.67,9.6-1.67c4.03,0,7.74.64,11.12,1.92s6.33,3.12,8.83,5.52l-2.6,5.05-.04.03Z"/>
      </g>
    </g>
  </g>
</svg>