<?xml version="1.0" encoding="UTF-8"?>
<svg id="_圖層_1" xmlns="http://www.w3.org/2000/svg" version="1.1" viewBox="0 0 1500 1500">
  <!-- Generator: Adobe Illustrator 29.7.1, SVG Export Plug-In . SVG Version: 2.1.1 Build 8)  -->
  <defs>
    <style>
      .st0 {
        fill: #1b1464;
      }

      .st1 {
        fill: #a5a6a9;
      }

      .st2 {
        fill: #0071bc;
      }

      .st3 {
        fill: #cfd1d2;
      }

      .st4 {
        fill: #919395;
      }

      .st5 {
        fill: red;
      }

      .st6 {
        fill: #2ea7e0;
      }

      .st7 {
        fill: #c1272d;
      }

      .st8 {
        fill: #e60012;
      }
    </style>
  </defs>
  <g>
    <path d="M795.25,745.74c0,25.31-20.56,45.82-45.93,45.82s-45.93-20.52-45.93-45.82,20.57-45.83,45.93-45.83,45.93,20.52,45.93,45.83Z"/>
    <g>
      <path class="st2" d="M766.09,744.19c0,9.24-7.51,16.73-16.78,16.73v273.55l33.85-280.34c.59-2.53.91-5.16.91-7.88,0-19.16-15.56-34.68-34.76-34.68v15.88c9.27,0,16.78,7.49,16.78,16.74h0Z"/>
      <path class="st6" d="M714.55,746.26c0,2.71.32,5.34.91,7.87l33.85,280.35h0v-273.55c-9.27,0-16.78-7.49-16.78-16.73s7.51-16.74,16.78-16.74v-15.88h0c-19.2,0-34.76,15.53-34.76,34.68h0Z"/>
    </g>
    <g>
      <path class="st5" d="M732.54,744.83c0-9.24,7.51-16.74,16.78-16.74v-273.55l-33.85,280.34c-.59,2.53-.91,5.17-.91,7.87,0,19.16,15.56,34.68,34.76,34.68v-15.88c-9.27,0-16.78-7.49-16.78-16.74v.02h0Z"/>
      <path class="st7" d="M784.08,742.76c0-2.71-.32-5.34-.91-7.87l-33.85-280.35h0v273.55c9.27,0,16.78,7.49,16.78,16.74s-7.51,16.74-16.78,16.74v15.88h0c19.2,0,34.76-15.53,34.76-34.68h0Z"/>
    </g>
    <g>
      <path class="st3" d="M768.79,744.1c0,10.73-8.72,19.43-19.47,19.43s-19.47-8.7-19.47-19.43,8.72-19.43,19.47-19.43,19.47,8.7,19.47,19.43Z"/>
      <path class="st4" d="M767.69,744.1c0,10.12-8.23,18.33-18.37,18.33s-18.37-8.21-18.37-18.33,8.23-18.33,18.37-18.33,18.37,8.21,18.37,18.33Z"/>
      <ellipse class="st3" cx="749.32" cy="744.1" rx="10.39" ry="10.36"/>
      <ellipse class="st1" cx="749.32" cy="744.1" rx="9.02" ry="9"/>
      <path d="M756.91,744.1c0,4.18-3.4,7.57-7.59,7.57s-7.59-3.39-7.59-7.57,3.4-7.57,7.59-7.57,7.59,3.39,7.59,7.57Z"/>
      <path class="st0" d="M754.65,744.1c0,2.94-2.39,5.32-5.33,5.32s-5.33-2.38-5.33-5.32,2.39-5.32,5.33-5.32,5.33,2.38,5.33,5.32Z"/>
    </g>
  </g>
  <polygon class="st8" points="749.32 39.29 721.52 109.52 777.12 109.52 749.32 39.29"/>
</svg>